<svg width="240" height="240" viewBox="0 0 240 240" fill="none" xmlns="http://www.w3.org/2000/svg">
<path d="M118.881 230.675C179.456 230.675 228.562 180.903 228.562 119.506C228.562 58.1095 179.456 8.33765 118.881 8.33765C58.3061 8.33765 9.20047 58.1095 9.20047 119.506C9.20047 180.903 58.3061 230.675 118.881 230.675Z" stroke="#581C87" stroke-width="16" stroke-miterlimit="10"/>
<path d="M165.235 152.317L119.286 168.152L74.0837 152.772C74.0163 142.663 73.9451 132.554 73.8702 122.445C80.6592 124.792 86.1668 126.672 89.9154 127.948C93.501 129.167 108.714 134.214 111.923 135.433C112.171 135.524 113.295 135.957 114.84 136.475C115.897 136.828 116.425 137.005 116.751 137.085C118.611 137.536 120.55 137.536 122.41 137.085C122.972 136.942 124.006 136.612 124.771 136.361C125.85 136.008 126.637 135.712 126.833 135.644C128.519 135.017 133.336 133.365 140.675 130.819C148.173 128.233 148.937 128.056 160.621 124.057L165.342 122.44L165.235 152.317Z" fill="#581C87"/>
<path d="M179.731 103.318H174.35V163.587H179.731V103.318Z" fill="#581C87"/>
<path d="M177.02 171.422C178.668 171.422 180.004 170.068 180.004 168.397C180.004 166.727 178.668 165.373 177.02 165.373C175.372 165.373 174.036 166.727 174.036 168.397C174.036 170.068 175.372 171.422 177.02 171.422Z" fill="#581C87"/>
<path d="M182.241 180.001L176.852 179.887L171.468 179.767L174.289 173.666L177.11 167.56L179.673 173.78L182.241 180.001Z" fill="#581C87"/>
<path d="M49.0634 105.368C51.154 107.766 107.854 125.92 119.555 129.651L189.727 105.453C190.092 105.31 190.418 105.08 190.677 104.783C190.936 104.486 191.121 104.129 191.216 103.745C191.3 103.259 191.232 102.759 191.023 102.314C190.813 101.869 190.472 101.501 190.047 101.261L119.555 77.2L51.8284 99.5407C51.4238 99.6148 49.4455 100.019 48.5295 101.7C48.2386 102.187 48.0904 102.748 48.1024 103.317C48.2083 104.084 48.5437 104.8 49.0634 105.368Z" fill="#581C87"/>
</svg>
